<?xml version="1.0" encoding="utf-8"?>
<!-- Generator: Adobe Illustrator 22.0.1, SVG Export Plug-In . SVG Version: 6.00 Build 0)  -->
<svg version="1.1" id="Layer_1" xmlns="http://www.w3.org/2000/svg" xmlns:xlink="http://www.w3.org/1999/xlink" x="0px" y="0px"
	 viewBox="0 0 425.1 70.9" style="enable-background:new 0 0 425.1 70.9;" xml:space="preserve">
<style type="text/css">
	.st0{font-family:'Arial-BoldMT';}
	.st1{font-size:46.6084px;}
	.st2{fill:none;stroke:#010202;stroke-miterlimit:10;}
	.st3{fill:#2E75BA;stroke:#010202;stroke-miterlimit:10;}
	.st4{fill:#888888;stroke:#010202;stroke-miterlimit:10;}
	.st5{fill:#EC645B;stroke:#010202;stroke-miterlimit:10;}
	.st6{fill:#888888;}
	.st7{font-family:'ArialMT';}
	.st8{font-size:44.548px;}
</style>
<g>
	<g>
		<text transform="matrix(1 0 0 1 316.5947 52.5127)" class="st0 st1">HDX</text>
		<g>
			<line class="st2" x1="286.7" y1="31.6" x2="300.5" y2="51.1"/>
			<line class="st2" x1="286.7" y1="31.6" x2="304.2" y2="36.8"/>
			<line class="st2" x1="286.7" y1="31.6" x2="304.7" y2="22.2"/>
			<line class="st2" x1="275.4" y1="45.4" x2="300.5" y2="51.1"/>
			<line class="st2" x1="286.7" y1="31.6" x2="278.2" y2="22.2"/>
			<circle class="st3" cx="286.7" cy="31.6" r="7.4"/>
			<path class="st4" d="M303.8,51.1c0,1.8-1.5,3.2-3.2,3.2c-1.8,0-3.2-1.5-3.2-3.2c0-1.8,1.5-3.2,3.2-3.2
				C302.3,47.9,303.8,49.4,303.8,51.1z"/>
			<circle class="st4" cx="304.7" cy="36.8" r="3.2"/>
			<circle class="st5" cx="304.7" cy="22.2" r="5.2"/>
			<path class="st4" d="M278.7,45.7c0,1.8-1.5,3.2-3.2,3.2c-1.8,0-3.2-1.5-3.2-3.2c0-1.8,1.5-3.2,3.2-3.2
				C277.2,42.5,278.7,43.9,278.7,45.7z"/>
			<circle class="st4" cx="276.9" cy="20.7" r="3.2"/>
		</g>
	</g>
</g>
<text transform="matrix(1 0 0 1 10.376 49.0752)" class="st6 st7 st8">Powered by </text>
</svg>
